<?xml version="1.0" encoding="UTF-8" standalone="no"?>
<!DOCTYPE svg PUBLIC "-//W3C//DTD SVG 1.1//EN"
 "http://www.w3.org/Graphics/SVG/1.1/DTD/svg11.dtd">
<!-- Generated by graphviz version 9.0.0 (20230911.1827)
 -->
<!-- Pages: 1 -->
<svg width="617pt" height="235pt"
 viewBox="0.00 0.00 617.00 235.00" xmlns="http://www.w3.org/2000/svg" xmlns:xlink="http://www.w3.org/1999/xlink">
<g id="graph0" class="graph" transform="scale(1 1) rotate(0) translate(4 231)">
<polygon fill="white" stroke="none" points="-4,4 -4,-231 613,-231 613,4 -4,4"/>
<g id="clust1" class="cluster">
<title>cluster__memorywriter_file</title>
<polygon fill="none" stroke="black" stroke-dasharray="1,5" points="8,-8 8,-219 601,-219 601,-8 8,-8"/>
</g>
<g id="clust3" class="cluster">
<title>cluster__sector</title>
<polygon fill="none" stroke="black" stroke-dasharray="1,5" points="16,-37 16,-169 257,-169 257,-37 16,-37"/>
<text text-anchor="middle" x="136.5" y="-151.7" font-family="Times New Roman,serif" font-size="14.00">MemorywriterFile::Sector</text>
</g>
<g id="clust2" class="cluster">
<title>cluster__sectorheader_struct</title>
<polygon fill="none" stroke="black" stroke-dasharray="1,5" points="277,-16 277,-211 593,-211 593,-16 277,-16"/>
<text text-anchor="middle" x="435" y="-193.7" font-family="Times New Roman,serif" font-size="14.00">MemorywriterFile::SectorheaderStruct</text>
</g>
<!-- sectorheader_struct__seq -->
<g id="node1" class="node">
<title>sectorheader_struct__seq</title>
<polygon fill="#e0ffe0" stroke="none" points="293,-154.5 293,-175.5 320,-175.5 320,-154.5 293,-154.5"/>
<polygon fill="none" stroke="black" points="293,-154.5 293,-175.5 320,-175.5 320,-154.5 293,-154.5"/>
<text text-anchor="start" x="296" y="-159.2" font-family="Times New Roman,serif" font-size="14.00">pos</text>
<polygon fill="#e0ffe0" stroke="none" points="320,-154.5 320,-175.5 347,-175.5 347,-154.5 320,-154.5"/>
<polygon fill="none" stroke="black" points="320,-154.5 320,-175.5 347,-175.5 347,-154.5 320,-154.5"/>
<text text-anchor="start" x="323" y="-159.2" font-family="Times New Roman,serif" font-size="14.00">size</text>
<polygon fill="#e0ffe0" stroke="none" points="347,-154.5 347,-175.5 512,-175.5 512,-154.5 347,-154.5"/>
<polygon fill="none" stroke="black" points="347,-154.5 347,-175.5 512,-175.5 512,-154.5 347,-154.5"/>
<text text-anchor="start" x="417.5" y="-159.2" font-family="Times New Roman,serif" font-size="14.00">type</text>
<polygon fill="#e0ffe0" stroke="none" points="512,-154.5 512,-175.5 577,-175.5 577,-154.5 512,-154.5"/>
<polygon fill="none" stroke="black" points="512,-154.5 512,-175.5 577,-175.5 577,-154.5 512,-154.5"/>
<text text-anchor="start" x="539.25" y="-159.2" font-family="Times New Roman,serif" font-size="14.00">id</text>
<polygon fill="none" stroke="black" points="293,-133.5 293,-154.5 320,-154.5 320,-133.5 293,-133.5"/>
<text text-anchor="start" x="303.12" y="-138.2" font-family="Times New Roman,serif" font-size="14.00">0</text>
<polygon fill="none" stroke="black" points="320,-133.5 320,-154.5 347,-154.5 347,-133.5 320,-133.5"/>
<text text-anchor="start" x="330.12" y="-138.2" font-family="Times New Roman,serif" font-size="14.00">2</text>
<polygon fill="none" stroke="black" points="347,-133.5 347,-154.5 512,-154.5 512,-133.5 347,-133.5"/>
<text text-anchor="start" x="350" y="-138.2" font-family="Times New Roman,serif" font-size="14.00">MemorywriterSectoraddress</text>
<polygon fill="none" stroke="black" points="512,-133.5 512,-154.5 577,-154.5 577,-133.5 512,-133.5"/>
<text text-anchor="start" x="514.88" y="-138.2" font-family="Times New Roman,serif" font-size="14.00">prevsector</text>
<polygon fill="none" stroke="black" points="293,-112.5 293,-133.5 320,-133.5 320,-112.5 293,-112.5"/>
<text text-anchor="start" x="303.12" y="-117.2" font-family="Times New Roman,serif" font-size="14.00">2</text>
<polygon fill="none" stroke="black" points="320,-112.5 320,-133.5 347,-133.5 347,-112.5 320,-112.5"/>
<text text-anchor="start" x="330.12" y="-117.2" font-family="Times New Roman,serif" font-size="14.00">2</text>
<polygon fill="none" stroke="black" points="347,-112.5 347,-133.5 512,-133.5 512,-112.5 347,-112.5"/>
<text text-anchor="start" x="350" y="-117.2" font-family="Times New Roman,serif" font-size="14.00">MemorywriterSectoraddress</text>
<polygon fill="none" stroke="black" points="512,-112.5 512,-133.5 577,-133.5 577,-112.5 512,-112.5"/>
<text text-anchor="start" x="515.62" y="-117.2" font-family="Times New Roman,serif" font-size="14.00">nextsector</text>
<polygon fill="none" stroke="black" points="293,-91.5 293,-112.5 320,-112.5 320,-91.5 293,-91.5"/>
<text text-anchor="start" x="303.12" y="-96.2" font-family="Times New Roman,serif" font-size="14.00">4</text>
<polygon fill="none" stroke="black" points="320,-91.5 320,-112.5 347,-112.5 347,-91.5 320,-91.5"/>
<text text-anchor="start" x="330.12" y="-96.2" font-family="Times New Roman,serif" font-size="14.00">1</text>
<polygon fill="none" stroke="black" points="347,-91.5 347,-112.5 512,-112.5 512,-91.5 347,-91.5"/>
<text text-anchor="start" x="422.75" y="-96.2" font-family="Times New Roman,serif" font-size="14.00">u1</text>
<polygon fill="none" stroke="black" points="512,-91.5 512,-112.5 577,-112.5 577,-91.5 512,-91.5"/>
<text text-anchor="start" x="522.38" y="-96.2" font-family="Times New Roman,serif" font-size="14.00">datasize</text>
<polygon fill="none" stroke="black" points="293,-70.5 293,-91.5 320,-91.5 320,-70.5 293,-70.5"/>
<text text-anchor="start" x="303.12" y="-75.2" font-family="Times New Roman,serif" font-size="14.00">5</text>
<polygon fill="none" stroke="black" points="320,-70.5 320,-91.5 347,-91.5 347,-70.5 320,-70.5"/>
<text text-anchor="start" x="330.12" y="-75.2" font-family="Times New Roman,serif" font-size="14.00">1</text>
<polygon fill="none" stroke="black" points="347,-70.5 347,-91.5 512,-91.5 512,-70.5 347,-70.5"/>
<text text-anchor="start" x="422.75" y="-75.2" font-family="Times New Roman,serif" font-size="14.00">u1</text>
<polygon fill="none" stroke="black" points="512,-70.5 512,-91.5 577,-91.5 577,-70.5 512,-70.5"/>
<text text-anchor="start" x="531" y="-75.2" font-family="Times New Roman,serif" font-size="14.00">fileid</text>
<polygon fill="none" stroke="black" points="293,-49.5 293,-70.5 320,-70.5 320,-49.5 293,-49.5"/>
<text text-anchor="start" x="303.12" y="-54.2" font-family="Times New Roman,serif" font-size="14.00">6</text>
<polygon fill="none" stroke="black" points="320,-49.5 320,-70.5 347,-70.5 347,-49.5 320,-49.5"/>
<text text-anchor="start" x="330.12" y="-54.2" font-family="Times New Roman,serif" font-size="14.00">1</text>
<polygon fill="none" stroke="black" points="347,-49.5 347,-70.5 512,-70.5 512,-49.5 347,-49.5"/>
<text text-anchor="start" x="422.75" y="-54.2" font-family="Times New Roman,serif" font-size="14.00">u1</text>
<polygon fill="none" stroke="black" points="512,-49.5 512,-70.5 577,-70.5 577,-49.5 512,-49.5"/>
<text text-anchor="start" x="519" y="-54.2" font-family="Times New Roman,serif" font-size="14.00">unknown</text>
<polygon fill="none" stroke="black" points="293,-28.5 293,-49.5 577,-49.5 577,-28.5 293,-28.5"/>
<text text-anchor="start" x="396.38" y="-33.2" font-family="Times New Roman,serif" font-size="14.00">repeat 2 times</text>
</g>
<!-- sector__seq -->
<g id="node2" class="node">
<title>sector__seq</title>
<polygon fill="#e0ffe0" stroke="none" points="32,-112 32,-133 59,-133 59,-112 32,-112"/>
<polygon fill="none" stroke="black" points="32,-112 32,-133 59,-133 59,-112 32,-112"/>
<text text-anchor="start" x="35" y="-116.7" font-family="Times New Roman,serif" font-size="14.00">pos</text>
<polygon fill="#e0ffe0" stroke="none" points="59,-112 59,-133 86,-133 86,-112 59,-112"/>
<polygon fill="none" stroke="black" points="59,-112 59,-133 86,-133 86,-112 59,-112"/>
<text text-anchor="start" x="62" y="-116.7" font-family="Times New Roman,serif" font-size="14.00">size</text>
<polygon fill="#e0ffe0" stroke="none" points="86,-112 86,-133 199,-133 199,-112 86,-112"/>
<polygon fill="none" stroke="black" points="86,-112 86,-133 199,-133 199,-112 86,-112"/>
<text text-anchor="start" x="130.5" y="-116.7" font-family="Times New Roman,serif" font-size="14.00">type</text>
<polygon fill="#e0ffe0" stroke="none" points="199,-112 199,-133 241,-133 241,-112 199,-112"/>
<polygon fill="none" stroke="black" points="199,-112 199,-133 241,-133 241,-112 199,-112"/>
<text text-anchor="start" x="214.75" y="-116.7" font-family="Times New Roman,serif" font-size="14.00">id</text>
<polygon fill="none" stroke="black" points="32,-91 32,-112 59,-112 59,-91 32,-91"/>
<text text-anchor="start" x="42.12" y="-95.7" font-family="Times New Roman,serif" font-size="14.00">0</text>
<polygon fill="none" stroke="black" points="59,-91 59,-112 86,-112 86,-91 59,-91"/>
<text text-anchor="start" x="69.12" y="-95.7" font-family="Times New Roman,serif" font-size="14.00">8</text>
<polygon fill="none" stroke="black" points="86,-91 86,-112 199,-112 199,-91 86,-91"/>
<text text-anchor="start" x="88.88" y="-95.7" font-family="Times New Roman,serif" font-size="14.00">SectorheaderStruct</text>
<polygon fill="none" stroke="black" points="199,-91 199,-112 241,-112 241,-91 199,-91"/>
<text text-anchor="start" x="201.62" y="-95.7" font-family="Times New Roman,serif" font-size="14.00">header</text>
<polygon fill="none" stroke="black" points="32,-70 32,-91 59,-91 59,-70 32,-70"/>
<text text-anchor="start" x="42.12" y="-74.7" font-family="Times New Roman,serif" font-size="14.00">8</text>
<polygon fill="none" stroke="black" points="59,-70 59,-91 86,-91 86,-70 59,-70"/>
<text text-anchor="start" x="69.12" y="-74.7" font-family="Times New Roman,serif" font-size="14.00">1</text>
<polygon fill="none" stroke="black" points="86,-70 86,-91 199,-91 199,-70 86,-70"/>
<text text-anchor="start" x="135.75" y="-74.7" font-family="Times New Roman,serif" font-size="14.00">u1</text>
<polygon fill="none" stroke="black" points="199,-70 199,-91 241,-91 241,-70 199,-70"/>
<text text-anchor="start" x="208.38" y="-74.7" font-family="Times New Roman,serif" font-size="14.00">data</text>
<polygon fill="none" stroke="black" points="32,-49 32,-70 241,-70 241,-49 32,-49"/>
<text text-anchor="start" x="58.88" y="-53.7" font-family="Times New Roman,serif" font-size="14.00">repeat header.datasize times</text>
</g>
<!-- sector__seq&#45;&gt;sectorheader_struct__seq -->
<g id="edge1" class="edge">
<title>sector__seq:header_type&#45;&gt;sectorheader_struct__seq</title>
<path fill="none" stroke="black" stroke-width="2" d="M242.5,-102C252.63,-102 263.07,-102 273.59,-102"/>
<polygon fill="black" stroke="black" stroke-width="2" points="272,-105.5 282,-102 272,-98.5 272,-105.5"/>
</g>
</g>
</svg>
