<?xml version="1.0" encoding="UTF-8" standalone="no"?>
<!DOCTYPE svg PUBLIC "-//W3C//DTD SVG 1.1//EN"
 "http://www.w3.org/Graphics/SVG/1.1/DTD/svg11.dtd">
<!-- Generated by graphviz version 9.0.0 (20230911.1827)
 -->
<!-- Pages: 1 -->
<svg width="576pt" height="135pt"
 viewBox="0.00 0.00 576.00 135.00" xmlns="http://www.w3.org/2000/svg" xmlns:xlink="http://www.w3.org/1999/xlink">
<g id="graph0" class="graph" transform="scale(1 1) rotate(0) translate(4 131)">
<polygon fill="white" stroke="none" points="-4,4 -4,-131 572,-131 572,4 -4,4"/>
<g id="clust1" class="cluster">
<title>cluster__memorywriter_sectoraddress</title>
<polygon fill="none" stroke="black" stroke-dasharray="1,5" points="8,-8 8,-119 560,-119 560,-8 8,-8"/>
<text text-anchor="middle" x="284" y="-101.7" font-family="Times New Roman,serif" font-size="14.00">MemorywriterSectoraddress</text>
</g>
<!-- memorywriter_sectoraddress__seq -->
<g id="node1" class="node">
<title>memorywriter_sectoraddress__seq</title>
<polygon fill="#e0ffe0" stroke="none" points="24,-62.5 24,-83.5 51,-83.5 51,-62.5 24,-62.5"/>
<polygon fill="none" stroke="black" points="24,-62.5 24,-83.5 51,-83.5 51,-62.5 24,-62.5"/>
<text text-anchor="start" x="27" y="-67.2" font-family="Times New Roman,serif" font-size="14.00">pos</text>
<polygon fill="#e0ffe0" stroke="none" points="51,-62.5 51,-83.5 78,-83.5 78,-62.5 51,-62.5"/>
<polygon fill="none" stroke="black" points="51,-62.5 51,-83.5 78,-83.5 78,-62.5 51,-62.5"/>
<text text-anchor="start" x="54" y="-67.2" font-family="Times New Roman,serif" font-size="14.00">size</text>
<polygon fill="#e0ffe0" stroke="none" points="78,-62.5 78,-83.5 108,-83.5 108,-62.5 78,-62.5"/>
<polygon fill="none" stroke="black" points="78,-62.5 78,-83.5 108,-83.5 108,-62.5 78,-62.5"/>
<text text-anchor="start" x="81" y="-67.2" font-family="Times New Roman,serif" font-size="14.00">type</text>
<polygon fill="#e0ffe0" stroke="none" points="108,-62.5 108,-83.5 148,-83.5 148,-62.5 108,-62.5"/>
<polygon fill="none" stroke="black" points="108,-62.5 108,-83.5 148,-83.5 148,-62.5 108,-62.5"/>
<text text-anchor="start" x="122.75" y="-67.2" font-family="Times New Roman,serif" font-size="14.00">id</text>
<polygon fill="none" stroke="black" points="24,-41.5 24,-62.5 51,-62.5 51,-41.5 24,-41.5"/>
<text text-anchor="start" x="34.12" y="-46.2" font-family="Times New Roman,serif" font-size="14.00">0</text>
<polygon fill="none" stroke="black" points="51,-41.5 51,-62.5 78,-62.5 78,-41.5 51,-41.5"/>
<text text-anchor="start" x="61.12" y="-46.2" font-family="Times New Roman,serif" font-size="14.00">1</text>
<polygon fill="none" stroke="black" points="78,-41.5 78,-62.5 108,-62.5 108,-41.5 78,-41.5"/>
<text text-anchor="start" x="86.25" y="-46.2" font-family="Times New Roman,serif" font-size="14.00">u1</text>
<polygon fill="none" stroke="black" points="108,-41.5 108,-62.5 148,-62.5 148,-41.5 108,-41.5"/>
<text text-anchor="start" x="114.12" y="-46.2" font-family="Times New Roman,serif" font-size="14.00">track</text>
<polygon fill="none" stroke="black" points="24,-20.5 24,-41.5 51,-41.5 51,-20.5 24,-20.5"/>
<text text-anchor="start" x="34.12" y="-25.2" font-family="Times New Roman,serif" font-size="14.00">1</text>
<polygon fill="none" stroke="black" points="51,-20.5 51,-41.5 78,-41.5 78,-20.5 51,-20.5"/>
<text text-anchor="start" x="61.12" y="-25.2" font-family="Times New Roman,serif" font-size="14.00">1</text>
<polygon fill="none" stroke="black" points="78,-20.5 78,-41.5 108,-41.5 108,-20.5 78,-20.5"/>
<text text-anchor="start" x="86.25" y="-25.2" font-family="Times New Roman,serif" font-size="14.00">u1</text>
<polygon fill="none" stroke="black" points="108,-20.5 108,-41.5 148,-41.5 148,-20.5 108,-20.5"/>
<text text-anchor="start" x="110.75" y="-25.2" font-family="Times New Roman,serif" font-size="14.00">sector</text>
</g>
<!-- memorywriter_sectoraddress__inst__offset -->
<g id="node2" class="node">
<title>memorywriter_sectoraddress__inst__offset</title>
<polygon fill="#e0ffe0" stroke="none" points="200,-41 200,-62 238,-62 238,-41 200,-41"/>
<polygon fill="none" stroke="black" points="200,-41 200,-62 238,-62 238,-41 200,-41"/>
<text text-anchor="start" x="213.75" y="-45.7" font-family="Times New Roman,serif" font-size="14.00">id</text>
<polygon fill="#e0ffe0" stroke="none" points="238,-41 238,-62 544,-62 544,-41 238,-41"/>
<polygon fill="none" stroke="black" points="238,-41 238,-62 544,-62 544,-41 238,-41"/>
<text text-anchor="start" x="376.75" y="-45.7" font-family="Times New Roman,serif" font-size="14.00">value</text>
<polygon fill="none" stroke="black" points="200,-20 200,-41 238,-41 238,-20 200,-20"/>
<text text-anchor="start" x="202.88" y="-24.7" font-family="Times New Roman,serif" font-size="14.00">offset</text>
<polygon fill="none" stroke="black" points="238,-20 238,-41 544,-41 544,-20 238,-20"/>
<text text-anchor="start" x="241" y="-24.7" font-family="Times New Roman,serif" font-size="14.00">(sector == 0 ? 0 : (256 * ((track * 16) + (sector &#45; 1))))</text>
</g>
<!-- memorywriter_sectoraddress__seq&#45;&gt;memorywriter_sectoraddress__inst__offset -->
<g id="edge1" class="edge">
<title>memorywriter_sectoraddress__seq:sector_type&#45;&gt;memorywriter_sectoraddress__inst__offset</title>
<path fill="none" stroke="#404040" d="M149,-31C159.38,-31 170.03,-31.11 180.78,-31.31"/>
<polygon fill="#404040" stroke="#404040" points="180.42,-34.8 190.5,-31.51 180.57,-27.8 180.42,-34.8"/>
</g>
<!-- memorywriter_sectoraddress__seq&#45;&gt;memorywriter_sectoraddress__inst__offset -->
<g id="edge2" class="edge">
<title>memorywriter_sectoraddress__seq:track_type&#45;&gt;memorywriter_sectoraddress__inst__offset</title>
<path fill="none" stroke="#404040" d="M149,-52C159.38,-52 170.03,-51.88 180.78,-51.66"/>
<polygon fill="#404040" stroke="#404040" points="180.59,-55.17 190.5,-51.44 180.42,-48.17 180.59,-55.17"/>
</g>
<!-- memorywriter_sectoraddress__seq&#45;&gt;memorywriter_sectoraddress__inst__offset -->
<g id="edge3" class="edge">
<title>memorywriter_sectoraddress__seq:sector_type&#45;&gt;memorywriter_sectoraddress__inst__offset</title>
<path fill="none" stroke="#404040" d="M149,-31C159.38,-31 170.03,-31.11 180.78,-31.31"/>
<polygon fill="#404040" stroke="#404040" points="180.42,-34.8 190.5,-31.51 180.57,-27.8 180.42,-34.8"/>
</g>
</g>
</svg>
