<?xml version="1.0" encoding="UTF-8" standalone="no"?>
<!DOCTYPE svg PUBLIC "-//W3C//DTD SVG 1.1//EN"
 "http://www.w3.org/Graphics/SVG/1.1/DTD/svg11.dtd">
<!-- Generated by graphviz version 9.0.0 (20230911.1827)
 -->
<!-- Pages: 1 -->
<svg width="612pt" height="280pt"
 viewBox="0.00 0.00 612.00 280.00" xmlns="http://www.w3.org/2000/svg" xmlns:xlink="http://www.w3.org/1999/xlink">
<g id="graph0" class="graph" transform="scale(1 1) rotate(0) translate(4 276)">
<polygon fill="white" stroke="none" points="-4,4 -4,-276 608,-276 608,4 -4,4"/>
<g id="clust1" class="cluster">
<title>cluster__memorywriter_directory</title>
<polygon fill="none" stroke="black" stroke-dasharray="1,5" points="8,-8 8,-264 596,-264 596,-8 8,-8"/>
<text text-anchor="middle" x="302" y="-246.7" font-family="Times New Roman,serif" font-size="14.00">MemorywriterDirectory</text>
</g>
<g id="clust2" class="cluster">
<title>cluster__directory_entry</title>
<polygon fill="none" stroke="black" stroke-dasharray="1,5" points="259,-16 259,-232 588,-232 588,-16 259,-16"/>
<text text-anchor="middle" x="423.5" y="-214.7" font-family="Times New Roman,serif" font-size="14.00">MemorywriterDirectory::DirectoryEntry</text>
</g>
<!-- memorywriter_directory__seq -->
<g id="node1" class="node">
<title>memorywriter_directory__seq</title>
<polygon fill="#e0ffe0" stroke="none" points="24,-122.5 24,-143.5 51,-143.5 51,-122.5 24,-122.5"/>
<polygon fill="none" stroke="black" points="24,-122.5 24,-143.5 51,-143.5 51,-122.5 24,-122.5"/>
<text text-anchor="start" x="27" y="-127.2" font-family="Times New Roman,serif" font-size="14.00">pos</text>
<polygon fill="#e0ffe0" stroke="none" points="51,-122.5 51,-143.5 78,-143.5 78,-122.5 51,-122.5"/>
<polygon fill="none" stroke="black" points="51,-122.5 51,-143.5 78,-143.5 78,-122.5 51,-122.5"/>
<text text-anchor="start" x="54" y="-127.2" font-family="Times New Roman,serif" font-size="14.00">size</text>
<polygon fill="#e0ffe0" stroke="none" points="78,-122.5 78,-143.5 166,-143.5 166,-122.5 78,-122.5"/>
<polygon fill="none" stroke="black" points="78,-122.5 78,-143.5 166,-143.5 166,-122.5 78,-122.5"/>
<text text-anchor="start" x="110" y="-127.2" font-family="Times New Roman,serif" font-size="14.00">type</text>
<polygon fill="#e0ffe0" stroke="none" points="166,-122.5 166,-143.5 223,-143.5 223,-122.5 166,-122.5"/>
<polygon fill="none" stroke="black" points="166,-122.5 166,-143.5 223,-143.5 223,-122.5 166,-122.5"/>
<text text-anchor="start" x="189.25" y="-127.2" font-family="Times New Roman,serif" font-size="14.00">id</text>
<polygon fill="none" stroke="black" points="24,-101.5 24,-122.5 51,-122.5 51,-101.5 24,-101.5"/>
<text text-anchor="start" x="34.12" y="-106.2" font-family="Times New Roman,serif" font-size="14.00">0</text>
<polygon fill="none" stroke="black" points="51,-101.5 51,-122.5 78,-122.5 78,-101.5 51,-101.5"/>
<text text-anchor="start" x="57.75" y="-106.2" font-family="Times New Roman,serif" font-size="14.00">19</text>
<polygon fill="none" stroke="black" points="78,-101.5 78,-122.5 166,-122.5 166,-101.5 78,-101.5"/>
<text text-anchor="start" x="80.75" y="-106.2" font-family="Times New Roman,serif" font-size="14.00">DirectoryEntry</text>
<polygon fill="none" stroke="black" points="166,-101.5 166,-122.5 223,-122.5 223,-101.5 166,-101.5"/>
<text text-anchor="start" x="169" y="-106.2" font-family="Times New Roman,serif" font-size="14.00">direntries</text>
<polygon fill="none" stroke="black" points="24,-80.5 24,-101.5 223,-101.5 223,-80.5 24,-80.5"/>
<text text-anchor="start" x="59" y="-85.2" font-family="Times New Roman,serif" font-size="14.00">repeat to end of stream</text>
</g>
<!-- directory_entry__seq -->
<g id="node2" class="node">
<title>directory_entry__seq</title>
<polygon fill="#e0ffe0" stroke="none" points="275,-175 275,-196 302,-196 302,-175 275,-175"/>
<polygon fill="none" stroke="black" points="275,-175 275,-196 302,-196 302,-175 275,-175"/>
<text text-anchor="start" x="278" y="-179.7" font-family="Times New Roman,serif" font-size="14.00">pos</text>
<polygon fill="#e0ffe0" stroke="none" points="302,-175 302,-196 329,-196 329,-175 302,-175"/>
<polygon fill="none" stroke="black" points="302,-175 302,-196 329,-196 329,-175 302,-175"/>
<text text-anchor="start" x="305" y="-179.7" font-family="Times New Roman,serif" font-size="14.00">size</text>
<polygon fill="#e0ffe0" stroke="none" points="329,-175 329,-196 494,-196 494,-175 329,-175"/>
<polygon fill="none" stroke="black" points="329,-175 329,-196 494,-196 494,-175 329,-175"/>
<text text-anchor="start" x="399.5" y="-179.7" font-family="Times New Roman,serif" font-size="14.00">type</text>
<polygon fill="#e0ffe0" stroke="none" points="494,-175 494,-196 572,-196 572,-175 494,-175"/>
<polygon fill="none" stroke="black" points="494,-175 494,-196 572,-196 572,-175 494,-175"/>
<text text-anchor="start" x="527.75" y="-179.7" font-family="Times New Roman,serif" font-size="14.00">id</text>
<polygon fill="none" stroke="black" points="275,-154 275,-175 302,-175 302,-154 275,-154"/>
<text text-anchor="start" x="285.12" y="-158.7" font-family="Times New Roman,serif" font-size="14.00">0</text>
<polygon fill="none" stroke="black" points="302,-154 302,-175 329,-175 329,-154 302,-154"/>
<text text-anchor="start" x="312.12" y="-158.7" font-family="Times New Roman,serif" font-size="14.00">1</text>
<polygon fill="none" stroke="black" points="329,-154 329,-175 494,-175 494,-154 329,-154"/>
<text text-anchor="start" x="404.75" y="-158.7" font-family="Times New Roman,serif" font-size="14.00">u1</text>
<polygon fill="none" stroke="black" points="494,-154 494,-175 572,-175 572,-154 494,-154"/>
<text text-anchor="start" x="519.5" y="-158.7" font-family="Times New Roman,serif" font-size="14.00">fileid</text>
<polygon fill="none" stroke="black" points="275,-133 275,-154 302,-154 302,-133 275,-133"/>
<text text-anchor="start" x="285.12" y="-137.7" font-family="Times New Roman,serif" font-size="14.00">1</text>
<polygon fill="none" stroke="black" points="302,-133 302,-154 329,-154 329,-133 302,-133"/>
<text text-anchor="start" x="308.75" y="-137.7" font-family="Times New Roman,serif" font-size="14.00">10</text>
<polygon fill="none" stroke="black" points="329,-133 329,-154 494,-154 494,-133 329,-133"/>
<text text-anchor="start" x="380.75" y="-137.7" font-family="Times New Roman,serif" font-size="14.00">str(UTF&#45;8)</text>
<polygon fill="none" stroke="black" points="494,-133 494,-154 572,-154 572,-133 494,-133"/>
<text text-anchor="start" x="518.38" y="-137.7" font-family="Times New Roman,serif" font-size="14.00">name</text>
<polygon fill="none" stroke="black" points="275,-112 275,-133 302,-133 302,-112 275,-112"/>
<text text-anchor="start" x="281.75" y="-116.7" font-family="Times New Roman,serif" font-size="14.00">11</text>
<polygon fill="none" stroke="black" points="302,-112 302,-133 329,-133 329,-112 302,-112"/>
<text text-anchor="start" x="312.12" y="-116.7" font-family="Times New Roman,serif" font-size="14.00">2</text>
<polygon fill="none" stroke="black" points="329,-112 329,-133 494,-133 494,-112 329,-112"/>
<text text-anchor="start" x="400.25" y="-116.7" font-family="Times New Roman,serif" font-size="14.00">u2le</text>
<polygon fill="none" stroke="black" points="494,-112 494,-133 572,-133 572,-112 494,-112"/>
<text text-anchor="start" x="500.75" y="-116.7" font-family="Times New Roman,serif" font-size="14.00">numsectors</text>
<polygon fill="none" stroke="black" points="275,-91 275,-112 302,-112 302,-91 275,-91"/>
<text text-anchor="start" x="281.75" y="-95.7" font-family="Times New Roman,serif" font-size="14.00">13</text>
<polygon fill="none" stroke="black" points="302,-91 302,-112 329,-112 329,-91 302,-91"/>
<text text-anchor="start" x="312.12" y="-95.7" font-family="Times New Roman,serif" font-size="14.00">2</text>
<polygon fill="none" stroke="black" points="329,-91 329,-112 494,-112 494,-91 329,-91"/>
<text text-anchor="start" x="332" y="-95.7" font-family="Times New Roman,serif" font-size="14.00">MemorywriterSectoraddress</text>
<polygon fill="none" stroke="black" points="494,-91 494,-112 572,-112 572,-91 494,-91"/>
<text text-anchor="start" x="496.62" y="-95.7" font-family="Times New Roman,serif" font-size="14.00">firstfilesector</text>
<polygon fill="none" stroke="black" points="275,-70 275,-91 302,-91 302,-70 275,-70"/>
<text text-anchor="start" x="281.75" y="-74.7" font-family="Times New Roman,serif" font-size="14.00">15</text>
<polygon fill="none" stroke="black" points="302,-70 302,-91 329,-91 329,-70 302,-70"/>
<text text-anchor="start" x="312.12" y="-74.7" font-family="Times New Roman,serif" font-size="14.00">2</text>
<polygon fill="none" stroke="black" points="329,-70 329,-91 494,-91 494,-70 329,-70"/>
<text text-anchor="start" x="332" y="-74.7" font-family="Times New Roman,serif" font-size="14.00">MemorywriterSectoraddress</text>
<polygon fill="none" stroke="black" points="494,-70 494,-91 572,-91 572,-70 494,-70"/>
<text text-anchor="start" x="498.12" y="-74.7" font-family="Times New Roman,serif" font-size="14.00">lastfilesector</text>
<polygon fill="none" stroke="black" points="275,-49 275,-70 302,-70 302,-49 275,-49"/>
<text text-anchor="start" x="281.75" y="-53.7" font-family="Times New Roman,serif" font-size="14.00">17</text>
<polygon fill="none" stroke="black" points="302,-49 302,-70 329,-70 329,-49 302,-49"/>
<text text-anchor="start" x="312.12" y="-53.7" font-family="Times New Roman,serif" font-size="14.00">1</text>
<polygon fill="none" stroke="black" points="329,-49 329,-70 494,-70 494,-49 329,-49"/>
<text text-anchor="start" x="404.75" y="-53.7" font-family="Times New Roman,serif" font-size="14.00">u1</text>
<polygon fill="none" stroke="black" points="494,-49 494,-70 572,-70 572,-49 494,-49"/>
<text text-anchor="start" x="507.5" y="-53.7" font-family="Times New Roman,serif" font-size="14.00">unknown</text>
<polygon fill="none" stroke="black" points="275,-28 275,-49 572,-49 572,-28 275,-28"/>
<text text-anchor="start" x="384.88" y="-32.7" font-family="Times New Roman,serif" font-size="14.00">repeat 2 times</text>
</g>
<!-- memorywriter_directory__seq&#45;&gt;directory_entry__seq -->
<g id="edge1" class="edge">
<title>memorywriter_directory__seq:direntries_type&#45;&gt;directory_entry__seq</title>
<path fill="none" stroke="black" stroke-width="2" d="M224.5,-112C234.66,-112 245.11,-112 255.66,-112"/>
<polygon fill="black" stroke="black" stroke-width="2" points="254.1,-115.5 264.1,-112 254.1,-108.5 254.1,-115.5"/>
</g>
</g>
</svg>
