<?xml version="1.0" encoding="UTF-8" standalone="no"?>
<!DOCTYPE svg PUBLIC "-//W3C//DTD SVG 1.1//EN"
 "http://www.w3.org/Graphics/SVG/1.1/DTD/svg11.dtd">
<!-- Generated by graphviz version 9.0.0 (20230911.1827)
 -->
<!-- Pages: 1 -->
<svg width="715pt" height="322pt"
 viewBox="0.00 0.00 715.00 322.00" xmlns="http://www.w3.org/2000/svg" xmlns:xlink="http://www.w3.org/1999/xlink">
<g id="graph0" class="graph" transform="scale(1 1) rotate(0) translate(4 318)">
<polygon fill="white" stroke="none" points="-4,4 -4,-318 711,-318 711,4 -4,4"/>
<g id="clust1" class="cluster">
<title>cluster__memorywriter_disk</title>
<polygon fill="none" stroke="black" stroke-dasharray="1,5" points="8,-8 8,-306 699,-306 699,-8 8,-8"/>
<text text-anchor="middle" x="353.5" y="-288.7" font-family="Times New Roman,serif" font-size="14.00">MemorywriterDisk</text>
</g>
<g id="clust2" class="cluster">
<title>cluster__diskheader_struct</title>
<polygon fill="none" stroke="black" stroke-dasharray="1,5" points="354,-16 354,-274 691,-274 691,-16 354,-16"/>
<text text-anchor="middle" x="522.5" y="-256.7" font-family="Times New Roman,serif" font-size="14.00">MemorywriterDisk::DiskheaderStruct</text>
</g>
<!-- memorywriter_disk__inst__diskheader -->
<g id="node1" class="node">
<title>memorywriter_disk__inst__diskheader</title>
<polygon fill="#e0ffe0" stroke="none" points="24,-144 24,-165 123,-165 123,-144 24,-144"/>
<polygon fill="none" stroke="black" points="24,-144 24,-165 123,-165 123,-144 24,-144"/>
<text text-anchor="start" x="63" y="-148.7" font-family="Times New Roman,serif" font-size="14.00">pos</text>
<polygon fill="#e0ffe0" stroke="none" points="123,-144 123,-165 150,-165 150,-144 123,-144"/>
<polygon fill="none" stroke="black" points="123,-144 123,-165 150,-165 150,-144 123,-144"/>
<text text-anchor="start" x="126" y="-148.7" font-family="Times New Roman,serif" font-size="14.00">size</text>
<polygon fill="#e0ffe0" stroke="none" points="150,-144 150,-165 252,-165 252,-144 150,-144"/>
<polygon fill="none" stroke="black" points="150,-144 150,-165 252,-165 252,-144 150,-144"/>
<text text-anchor="start" x="189" y="-148.7" font-family="Times New Roman,serif" font-size="14.00">type</text>
<polygon fill="#e0ffe0" stroke="none" points="252,-144 252,-165 318,-165 318,-144 252,-144"/>
<polygon fill="none" stroke="black" points="252,-144 252,-165 318,-165 318,-144 252,-144"/>
<text text-anchor="start" x="279.75" y="-148.7" font-family="Times New Roman,serif" font-size="14.00">id</text>
<polygon fill="none" stroke="black" points="24,-123 24,-144 123,-144 123,-123 24,-123"/>
<text text-anchor="start" x="26.62" y="-127.7" font-family="Times New Roman,serif" font-size="14.00">((256 * 17) * 16)</text>
<polygon fill="none" stroke="black" points="123,-123 123,-144 150,-144 150,-123 123,-123"/>
<text text-anchor="start" x="126.38" y="-127.7" font-family="Times New Roman,serif" font-size="14.00">256</text>
<polygon fill="none" stroke="black" points="150,-123 150,-144 252,-144 252,-123 150,-123"/>
<text text-anchor="start" x="153" y="-127.7" font-family="Times New Roman,serif" font-size="14.00">DiskheaderStruct</text>
<polygon fill="none" stroke="black" points="252,-123 252,-144 318,-144 318,-123 252,-123"/>
<text text-anchor="start" x="255" y="-127.7" font-family="Times New Roman,serif" font-size="14.00">diskheader</text>
</g>
<!-- diskheader_struct__seq -->
<g id="node2" class="node">
<title>diskheader_struct__seq</title>
<polygon fill="#e0ffe0" stroke="none" points="370,-217 370,-238 397,-238 397,-217 370,-217"/>
<polygon fill="none" stroke="black" points="370,-217 370,-238 397,-238 397,-217 370,-217"/>
<text text-anchor="start" x="373" y="-221.7" font-family="Times New Roman,serif" font-size="14.00">pos</text>
<polygon fill="#e0ffe0" stroke="none" points="397,-217 397,-238 424,-238 424,-217 397,-217"/>
<polygon fill="none" stroke="black" points="397,-217 397,-238 424,-238 424,-217 397,-217"/>
<text text-anchor="start" x="400" y="-221.7" font-family="Times New Roman,serif" font-size="14.00">size</text>
<polygon fill="#e0ffe0" stroke="none" points="424,-217 424,-238 589,-238 589,-217 424,-217"/>
<polygon fill="none" stroke="black" points="424,-217 424,-238 589,-238 589,-217 424,-217"/>
<text text-anchor="start" x="494.5" y="-221.7" font-family="Times New Roman,serif" font-size="14.00">type</text>
<polygon fill="#e0ffe0" stroke="none" points="589,-217 589,-238 675,-238 675,-217 589,-217"/>
<polygon fill="none" stroke="black" points="589,-217 589,-238 675,-238 675,-217 589,-217"/>
<text text-anchor="start" x="626.75" y="-221.7" font-family="Times New Roman,serif" font-size="14.00">id</text>
<polygon fill="none" stroke="black" points="370,-196 370,-217 397,-217 397,-196 370,-196"/>
<text text-anchor="start" x="380.12" y="-200.7" font-family="Times New Roman,serif" font-size="14.00">0</text>
<polygon fill="none" stroke="black" points="397,-196 397,-217 424,-217 424,-196 397,-196"/>
<text text-anchor="start" x="403.75" y="-200.7" font-family="Times New Roman,serif" font-size="14.00">11</text>
<polygon fill="none" stroke="black" points="424,-196 424,-217 589,-217 589,-196 424,-196"/>
<text text-anchor="start" x="475.75" y="-200.7" font-family="Times New Roman,serif" font-size="14.00">str(UTF&#45;8)</text>
<polygon fill="none" stroke="black" points="589,-196 589,-217 675,-217 675,-196 589,-196"/>
<text text-anchor="start" x="619.25" y="-200.7" font-family="Times New Roman,serif" font-size="14.00">label</text>
<polygon fill="none" stroke="black" points="370,-175 370,-196 397,-196 397,-175 370,-175"/>
<text text-anchor="start" x="376.75" y="-179.7" font-family="Times New Roman,serif" font-size="14.00">11</text>
<polygon fill="none" stroke="black" points="397,-175 397,-196 424,-196 424,-175 397,-175"/>
<text text-anchor="start" x="407.12" y="-179.7" font-family="Times New Roman,serif" font-size="14.00">2</text>
<polygon fill="none" stroke="black" points="424,-175 424,-196 589,-196 589,-175 424,-175"/>
<text text-anchor="start" x="427" y="-179.7" font-family="Times New Roman,serif" font-size="14.00">MemorywriterSectoraddress</text>
<polygon fill="none" stroke="black" points="589,-175 589,-196 675,-196 675,-175 589,-175"/>
<text text-anchor="start" x="596.38" y="-179.7" font-family="Times New Roman,serif" font-size="14.00">firstdirsector</text>
<polygon fill="none" stroke="black" points="370,-154 370,-175 397,-175 397,-154 370,-154"/>
<text text-anchor="start" x="376.75" y="-158.7" font-family="Times New Roman,serif" font-size="14.00">13</text>
<polygon fill="none" stroke="black" points="397,-154 397,-175 424,-175 424,-154 397,-154"/>
<text text-anchor="start" x="407.12" y="-158.7" font-family="Times New Roman,serif" font-size="14.00">2</text>
<polygon fill="none" stroke="black" points="424,-154 424,-175 589,-175 589,-154 424,-154"/>
<text text-anchor="start" x="427" y="-158.7" font-family="Times New Roman,serif" font-size="14.00">MemorywriterSectoraddress</text>
<polygon fill="none" stroke="black" points="589,-154 589,-175 675,-175 675,-154 589,-154"/>
<text text-anchor="start" x="597.88" y="-158.7" font-family="Times New Roman,serif" font-size="14.00">lastdirsector</text>
<polygon fill="none" stroke="black" points="370,-133 370,-154 397,-154 397,-133 370,-133"/>
<text text-anchor="start" x="376.75" y="-137.7" font-family="Times New Roman,serif" font-size="14.00">15</text>
<polygon fill="none" stroke="black" points="397,-133 397,-154 424,-154 424,-133 397,-133"/>
<text text-anchor="start" x="407.12" y="-137.7" font-family="Times New Roman,serif" font-size="14.00">1</text>
<polygon fill="none" stroke="black" points="424,-133 424,-154 589,-154 589,-133 424,-133"/>
<text text-anchor="start" x="499.75" y="-137.7" font-family="Times New Roman,serif" font-size="14.00">u1</text>
<polygon fill="none" stroke="black" points="589,-133 589,-154 675,-154 675,-133 589,-133"/>
<text text-anchor="start" x="603.12" y="-137.7" font-family="Times New Roman,serif" font-size="14.00">unknown1</text>
<polygon fill="none" stroke="black" points="370,-112 370,-133 675,-133 675,-112 370,-112"/>
<text text-anchor="start" x="480.5" y="-116.7" font-family="Times New Roman,serif" font-size="14.00">repeat 14 times</text>
<polygon fill="none" stroke="black" points="370,-91 370,-112 397,-112 397,-91 370,-91"/>
<text text-anchor="start" x="376.75" y="-95.7" font-family="Times New Roman,serif" font-size="14.00">29</text>
<polygon fill="none" stroke="black" points="397,-91 397,-112 424,-112 424,-91 397,-91"/>
<text text-anchor="start" x="407.12" y="-95.7" font-family="Times New Roman,serif" font-size="14.00">1</text>
<polygon fill="none" stroke="black" points="424,-91 424,-112 589,-112 589,-91 424,-91"/>
<text text-anchor="start" x="499.75" y="-95.7" font-family="Times New Roman,serif" font-size="14.00">u1</text>
<polygon fill="none" stroke="black" points="589,-91 589,-112 675,-112 675,-91 589,-91"/>
<text text-anchor="start" x="591.88" y="-95.7" font-family="Times New Roman,serif" font-size="14.00">sector_bitmap</text>
<polygon fill="none" stroke="black" points="370,-70 370,-91 675,-91 675,-70 370,-70"/>
<text text-anchor="start" x="480.5" y="-74.7" font-family="Times New Roman,serif" font-size="14.00">repeat 80 times</text>
<polygon fill="none" stroke="black" points="370,-49 370,-70 397,-70 397,-49 370,-49"/>
<text text-anchor="start" x="373.38" y="-53.7" font-family="Times New Roman,serif" font-size="14.00">109</text>
<polygon fill="none" stroke="black" points="397,-49 397,-70 424,-70 424,-49 397,-49"/>
<text text-anchor="start" x="407.12" y="-53.7" font-family="Times New Roman,serif" font-size="14.00">1</text>
<polygon fill="none" stroke="black" points="424,-49 424,-70 589,-70 589,-49 424,-49"/>
<text text-anchor="start" x="499.75" y="-53.7" font-family="Times New Roman,serif" font-size="14.00">u1</text>
<polygon fill="none" stroke="black" points="589,-49 589,-70 675,-70 675,-49 589,-49"/>
<text text-anchor="start" x="603.12" y="-53.7" font-family="Times New Roman,serif" font-size="14.00">unknown2</text>
<polygon fill="none" stroke="black" points="370,-28 370,-49 675,-49 675,-28 370,-28"/>
<text text-anchor="start" x="477.12" y="-32.7" font-family="Times New Roman,serif" font-size="14.00">repeat 147 times</text>
</g>
<!-- memorywriter_disk__inst__diskheader&#45;&gt;diskheader_struct__seq -->
<g id="edge1" class="edge">
<title>memorywriter_disk__inst__diskheader:diskheader_type&#45;&gt;diskheader_struct__seq</title>
<path fill="none" stroke="black" stroke-width="2" d="M319,-133C329.37,-133 340.04,-133 350.81,-133"/>
<polygon fill="black" stroke="black" stroke-width="2" points="349.02,-136.5 359.02,-133 349.02,-129.5 349.02,-136.5"/>
</g>
</g>
</svg>
