<?xml version="1.0" encoding="UTF-8" standalone="no"?>
<!DOCTYPE svg PUBLIC "-//W3C//DTD SVG 1.1//EN"
 "http://www.w3.org/Graphics/SVG/1.1/DTD/svg11.dtd">
<!-- Generated by graphviz version 9.0.0 (20230911.1827)
 -->
<!-- Pages: 1 -->
<svg width="222pt" height="135pt"
 viewBox="0.00 0.00 222.00 135.00" xmlns="http://www.w3.org/2000/svg" xmlns:xlink="http://www.w3.org/1999/xlink">
<g id="graph0" class="graph" transform="scale(1 1) rotate(0) translate(4 131)">
<polygon fill="white" stroke="none" points="-4,4 -4,-131 218,-131 218,4 -4,4"/>
<g id="clust1" class="cluster">
<title>cluster__chunk_header_t</title>
<polygon fill="none" stroke="black" stroke-dasharray="1,5" points="0,-8 0,-119 214,-119 214,-8 0,-8"/>
<text text-anchor="middle" x="107" y="-101.7" font-family="Times New Roman,serif" font-size="14.00">MemorywriterExec::ChunkHeaderT</text>
</g>
<!-- chunk_header_t__seq -->
<g id="node1" class="node">
<title>chunk_header_t__seq</title>
<polygon fill="#e0ffe0" stroke="none" points="33,-62.5 33,-83.5 60,-83.5 60,-62.5 33,-62.5"/>
<polygon fill="none" stroke="black" points="33,-62.5 33,-83.5 60,-83.5 60,-62.5 33,-62.5"/>
<text text-anchor="start" x="36" y="-67.2" font-family="Times New Roman,serif" font-size="14.00">pos</text>
<polygon fill="#e0ffe0" stroke="none" points="60,-62.5 60,-83.5 87,-83.5 87,-62.5 60,-62.5"/>
<polygon fill="none" stroke="black" points="60,-62.5 60,-83.5 87,-83.5 87,-62.5 60,-62.5"/>
<text text-anchor="start" x="63" y="-67.2" font-family="Times New Roman,serif" font-size="14.00">size</text>
<polygon fill="#e0ffe0" stroke="none" points="87,-62.5 87,-83.5 117,-83.5 117,-62.5 87,-62.5"/>
<polygon fill="none" stroke="black" points="87,-62.5 87,-83.5 117,-83.5 117,-62.5 87,-62.5"/>
<text text-anchor="start" x="90" y="-67.2" font-family="Times New Roman,serif" font-size="14.00">type</text>
<polygon fill="#e0ffe0" stroke="none" points="117,-62.5 117,-83.5 180,-83.5 180,-62.5 117,-62.5"/>
<polygon fill="none" stroke="black" points="117,-62.5 117,-83.5 180,-83.5 180,-62.5 117,-62.5"/>
<text text-anchor="start" x="143.25" y="-67.2" font-family="Times New Roman,serif" font-size="14.00">id</text>
<polygon fill="none" stroke="black" points="33,-41.5 33,-62.5 60,-62.5 60,-41.5 33,-41.5"/>
<text text-anchor="start" x="43.12" y="-46.2" font-family="Times New Roman,serif" font-size="14.00">0</text>
<polygon fill="none" stroke="black" points="60,-41.5 60,-62.5 87,-62.5 87,-41.5 60,-41.5"/>
<text text-anchor="start" x="70.12" y="-46.2" font-family="Times New Roman,serif" font-size="14.00">1</text>
<polygon fill="none" stroke="black" points="87,-41.5 87,-62.5 117,-62.5 117,-41.5 87,-41.5"/>
<text text-anchor="start" x="95.25" y="-46.2" font-family="Times New Roman,serif" font-size="14.00">u1</text>
<polygon fill="none" stroke="black" points="117,-41.5 117,-62.5 180,-62.5 180,-41.5 117,-41.5"/>
<text text-anchor="start" x="119.62" y="-46.2" font-family="Times New Roman,serif" font-size="14.00">chunktype</text>
<polygon fill="none" stroke="black" points="33,-20.5 33,-41.5 60,-41.5 60,-20.5 33,-20.5"/>
<text text-anchor="start" x="43.12" y="-25.2" font-family="Times New Roman,serif" font-size="14.00">1</text>
<polygon fill="none" stroke="black" points="60,-20.5 60,-41.5 87,-41.5 87,-20.5 60,-20.5"/>
<text text-anchor="start" x="70.12" y="-25.2" font-family="Times New Roman,serif" font-size="14.00">2</text>
<polygon fill="none" stroke="black" points="87,-20.5 87,-41.5 117,-41.5 117,-20.5 87,-20.5"/>
<text text-anchor="start" x="90.75" y="-25.2" font-family="Times New Roman,serif" font-size="14.00">u2le</text>
<polygon fill="none" stroke="black" points="117,-20.5 117,-41.5 180,-41.5 180,-20.5 117,-20.5"/>
<text text-anchor="start" x="121.12" y="-25.2" font-family="Times New Roman,serif" font-size="14.00">chunksize</text>
</g>
</g>
</svg>
