<?xml version="1.0" encoding="UTF-8" standalone="no"?>
<!DOCTYPE svg PUBLIC "-//W3C//DTD SVG 1.1//EN"
 "http://www.w3.org/Graphics/SVG/1.1/DTD/svg11.dtd">
<!-- Generated by graphviz version 9.0.0 (20230911.1827)
 -->
<!-- Pages: 1 -->
<svg width="213pt" height="156pt"
 viewBox="0.00 0.00 213.00 156.00" xmlns="http://www.w3.org/2000/svg" xmlns:xlink="http://www.w3.org/1999/xlink">
<g id="graph0" class="graph" transform="scale(1 1) rotate(0) translate(4 152)">
<polygon fill="white" stroke="none" points="-4,4 -4,-152 209,-152 209,4 -4,4"/>
<g id="clust1" class="cluster">
<title>cluster__load_chunk</title>
<polygon fill="none" stroke="black" stroke-dasharray="1,5" points="6,-8 6,-140 200,-140 200,-8 6,-8"/>
<text text-anchor="middle" x="103" y="-122.7" font-family="Times New Roman,serif" font-size="14.00">MemorywriterExec::LoadChunk</text>
</g>
<!-- load_chunk__seq -->
<g id="node1" class="node">
<title>load_chunk__seq</title>
<polygon fill="#e0ffe0" stroke="none" points="24,-83 24,-104 51,-104 51,-83 24,-83"/>
<polygon fill="none" stroke="black" points="24,-83 24,-104 51,-104 51,-83 24,-83"/>
<text text-anchor="start" x="27" y="-87.7" font-family="Times New Roman,serif" font-size="14.00">pos</text>
<polygon fill="#e0ffe0" stroke="none" points="51,-83 51,-104 78,-104 78,-83 51,-83"/>
<polygon fill="none" stroke="black" points="51,-83 51,-104 78,-104 78,-83 51,-83"/>
<text text-anchor="start" x="54" y="-87.7" font-family="Times New Roman,serif" font-size="14.00">size</text>
<polygon fill="#e0ffe0" stroke="none" points="78,-83 78,-104 108,-104 108,-83 78,-83"/>
<polygon fill="none" stroke="black" points="78,-83 78,-104 108,-104 108,-83 78,-83"/>
<text text-anchor="start" x="81" y="-87.7" font-family="Times New Roman,serif" font-size="14.00">type</text>
<polygon fill="#e0ffe0" stroke="none" points="108,-83 108,-104 181,-104 181,-83 108,-83"/>
<polygon fill="none" stroke="black" points="108,-83 108,-104 181,-104 181,-83 108,-83"/>
<text text-anchor="start" x="139.25" y="-87.7" font-family="Times New Roman,serif" font-size="14.00">id</text>
<polygon fill="none" stroke="black" points="24,-62 24,-83 51,-83 51,-62 24,-62"/>
<text text-anchor="start" x="34.12" y="-66.7" font-family="Times New Roman,serif" font-size="14.00">0</text>
<polygon fill="none" stroke="black" points="51,-62 51,-83 78,-83 78,-62 51,-62"/>
<text text-anchor="start" x="61.12" y="-66.7" font-family="Times New Roman,serif" font-size="14.00">1</text>
<polygon fill="none" stroke="black" points="78,-62 78,-83 108,-83 108,-62 78,-62"/>
<text text-anchor="start" x="86.25" y="-66.7" font-family="Times New Roman,serif" font-size="14.00">u1</text>
<polygon fill="none" stroke="black" points="108,-62 108,-83 181,-83 181,-62 108,-62"/>
<text text-anchor="start" x="119" y="-66.7" font-family="Times New Roman,serif" font-size="14.00">unknown</text>
<polygon fill="none" stroke="black" points="24,-41 24,-62 51,-62 51,-41 24,-41"/>
<text text-anchor="start" x="34.12" y="-45.7" font-family="Times New Roman,serif" font-size="14.00">1</text>
<polygon fill="none" stroke="black" points="51,-41 51,-62 78,-62 78,-41 51,-41"/>
<text text-anchor="start" x="61.12" y="-45.7" font-family="Times New Roman,serif" font-size="14.00">2</text>
<polygon fill="none" stroke="black" points="78,-41 78,-62 108,-62 108,-41 78,-41"/>
<text text-anchor="start" x="81.75" y="-45.7" font-family="Times New Roman,serif" font-size="14.00">u2le</text>
<polygon fill="none" stroke="black" points="108,-41 108,-62 181,-62 181,-41 108,-41"/>
<text text-anchor="start" x="110.75" y="-45.7" font-family="Times New Roman,serif" font-size="14.00">loadaddress</text>
<polygon fill="none" stroke="black" points="24,-20 24,-41 51,-41 51,-20 24,-20"/>
<text text-anchor="start" x="34.12" y="-24.7" font-family="Times New Roman,serif" font-size="14.00">3</text>
<polygon fill="none" stroke="black" points="51,-20 51,-41 78,-41 78,-20 51,-20"/>
<text text-anchor="start" x="55.88" y="-24.32" font-family="Times New Roman,serif" font-size="14.00">⇲</text>
<polygon fill="none" stroke="black" points="78,-20 78,-41 108,-41 108,-20 78,-20"/>
<polygon fill="none" stroke="black" points="108,-20 108,-41 181,-41 181,-20 108,-20"/>
<text text-anchor="start" x="132.88" y="-24.7" font-family="Times New Roman,serif" font-size="14.00">data</text>
</g>
</g>
</svg>
